<!-- https://formito.com/tools/favicon -->
<svg xmlns="http://www.w3.org/2000/svg" width="256" height="256" viewBox="0 0 100 100"><rect width="100" height="100" rx="20" fill="#426bb3"></rect><path d="M37.36 68.40L37.36 68.40Q37.36 65.47 35.16 63.85Q32.95 62.23 27.46 61.05Q21.97 59.88 18.75 58.24Q15.53 56.60 13.98 54.34Q12.44 52.07 12.44 48.95L12.44 48.95Q12.44 43.75 16.84 40.16Q21.23 36.56 28.07 36.56L28.07 36.56Q35.25 36.56 39.73 40.27Q44.20 43.98 44.20 49.77L44.20 49.77L36.93 49.77Q36.93 46.80 34.41 44.65Q31.89 42.50 28.07 42.50L28.07 42.50Q24.12 42.50 21.89 44.22Q19.67 45.94 19.67 48.71L19.67 48.71Q19.67 51.33 21.74 52.66Q23.81 53.98 29.22 55.20Q34.63 56.41 37.99 58.09Q41.35 59.77 42.97 62.13Q44.59 64.49 44.59 67.89L44.59 67.89Q44.59 73.55 40.06 76.97Q35.53 80.39 28.30 80.39L28.30 80.39Q23.22 80.39 19.32 78.59Q15.41 76.80 13.20 73.57Q11.00 70.35 11.00 66.60L11.00 66.60L18.22 66.60Q18.42 70.23 21.13 72.36Q23.85 74.49 28.30 74.49L28.30 74.49Q32.40 74.49 34.88 72.83Q37.36 71.17 37.36 68.40ZM80.53 79.61L65.80 60.04L61.27 64.77L61.27 79.61L54.04 79.61L54.04 19.61L61.27 19.61L61.27 55.90L65.14 51.25L78.30 37.34L87.09 37.34L70.64 55L89.00 79.61L80.53 79.61Z" fill="#fff"></path></svg>