<?xml version="1.0" encoding="utf-8"?>
<!-- Generator: Adobe Adobe Illustrator 24.2.0, SVG Export Plug-In . SVG Version: 6.00 Build 0)  -->
<svg version="1.1" id="Layer_1" xmlns="http://www.w3.org/2000/svg" xmlns:xlink="http://www.w3.org/1999/xlink" x="0px" y="0px"
	 viewBox="0 0 324 270" style="enable-background:new 0 0 324 270;" xml:space="preserve">
<style type="text/css">
	.st0{fill:#426BB3;}
</style>
<path class="st0" d="M293.12,167.42c-7.73-11.78-16.98-22.51-27.47-31.91c-21.52-19.3-48-32.46-76.29-38.33c-0.01,0-0.02,0-0.03,0
	c9.35-12.51,20.07-23.92,32.22-33.81c16.4-13.35,34.63-22.76,53.17-32.67c3.28-1.75,6.15-4.62,8.5-7.45
	c0.37-0.45,4.01-5.75,2.19-5.2c-11.22,3.36-21.61,9.53-31.52,15.65c-10.69,6.61-20.87,14.07-30.49,22.16
	c-14.88,12.51-28.48,26.54-40.48,41.83c-0.61-23.49-3.67-46.95-8.14-69.99c-0.43-2.24-5.27,2.25-5.93,2.84
	c-1.49,1.33-7.31,6.07-6.84,8.6c4.47,24.22,6.36,48.7,6.35,73.32c-0.01,11.93-0.43,23.84-1.42,35.72
	c-0.51,6.1-1.15,12.19-1.92,18.27c-0.79,6.17-2.36,12.52-2.46,18.73c0.04,0.22,0.08,0.43,0.13,0.65l1.07,0.49
	c2.87,1.33,9.73-6.83,11.49-10.31c0.02-0.02,0.04-0.03,0.06-0.05c3.38-5.97,3.83-12.8,4.66-19.52c0.74-5.99,1.35-11.99,1.82-18.01
	c0.67-8.54,1.07-17.11,1.19-25.69c24.82,6.99,47.51,20.45,66.34,38.08c10.28,9.63,19.4,20.54,26.98,32.42
	c3.79,5.94,7.11,12.15,10.25,18.45c3.1,6.25,5.68,12.77,9.86,18.41c1.38,1.86,12.93-9.62,12.79-12.12
	C308.43,193.19,301.1,179.57,293.12,167.42z"/>
<path class="st0" d="M144.61,99.72c-2.11-8.41-9.09-12.48-17.33-12.95c-12.3-0.71-39.81,9.49-41.09-11.22
	c-0.65-10.52,7.13-21.79,14.45-28.75c8.41-7.99,19.36-13.38,30.4-16.62c3.21-0.94,6.02-4.09,8.17-6.51c0.45-0.5,4.38-6.11,2.7-5.63
	c-21.8,6.21-40.34,20.43-54.39,38C81,64.18,73.73,74.42,72.96,85.19c-0.67,9.23,5.08,15.8,14.06,16.86
	c14.31,1.68,42.1-10.13,44.65,13.06c1.34,12.17-7.66,21.24-14.82,29.87c-9.12,10.99-18.22,21.99-27.33,33
	c-20.3,24.53-41.13,48.71-60.59,73.92c-1.11,1.44-3.13,3.56-0.96,3.97c2.02,0.39,6.85-5.32,7.82-6.42
	c17.86-20.39,34.87-41.51,52.07-62.45c8.6-10.46,17.22-20.9,25.83-31.35c7.93-9.62,16.46-19.01,23.58-29.26
	C142.67,118.6,147.03,109.37,144.61,99.72z"/>
</svg>
